# xmcd
#
# Track frame offsets: 
#        150
#        12366
#        24146
#        30538
#        38784
#        44931
#        53279
#        62366
#        72860
#        77416
#        85623
#        93272
#        101329
#        110442
#        115901
#        122918
#        133782
#        145141
#
# Disc length: 2059 seconds
#
# Revision: 0
# Processed by: cddbd v1.5PL3 Copyright (c) Steve Scherf et al.
# Submitted via: ExactAudioCopy v0.95a5
#
DISCID=dc080912
DTITLE=Curly Fox - 18 Old-Time Country Favorites
DYEAR=1972
DGENRE=Bluegrass
TTITLE0=Long Lost John
TTITLE1=Sittin' on Top of the World
TTITLE2=Robert E. Lee
TTITLE3=Maiden's Prayer
TTITLE4=Spanish Two-Step
TTITLE5=Johnson's Old Gray Mule
TTITLE6=Bird in a Gilded Cage
TTITLE7=Listen to the Mockin' Bird
TTITLE8=Chinese Breakdown
TTITLE9=History in a Few Words
TTITLE10=K.C. Railroad Blues
TTITLE11=Fox Chase
TTITLE12=Jack of Diamonds
TTITLE13=Curly's Breakdown
TTITLE14=Floatin' Down to Cotton Town
TTITLE15=Barclay Blues
TTITLE16=Mountain Dew
TTITLE17=Over the Waves
EXTD=
EXTT0=
EXTT1=
EXTT2=
EXTT3=
EXTT4=
EXTT5=
EXTT6=
EXTT7=
EXTT8=
EXTT9=
EXTT10=
EXTT11=
EXTT12=
EXTT13=
EXTT14=
EXTT15=
EXTT16=
EXTT17=
PLAYORDER=
